/* XPM */
static char * C:\temp\weechat_xpm[] = {
"32 32 362 2",
"  	c None",
". 	c #117529",
"+ 	c #0E7527",
"@ 	c #0A7424",
"# 	c #057323",
"$ 	c #016F20",
"% 	c #5DAA58",
"& 	c #5DB059",
"* 	c #5AB158",
"= 	c #57B157",
"- 	c #54AF55",
"; 	c #4FAE53",
"> 	c #4BAE52",
", 	c #48AD50",
"' 	c #44AC4E",
") 	c #3FAB4C",
"! 	c #3BA849",
"~ 	c #36A646",
"{ 	c #30A343",
"] 	c #2CA040",
"^ 	c #279D3D",
"/ 	c #229A3A",
"( 	c #1D9837",
"_ 	c #189534",
": 	c #129232",
"< 	c #0D8F2E",
"[ 	c #088D2C",
"} 	c #03691F",
"| 	c #64AB5B",
"1 	c #6FC468",
"2 	c #6AC265",
"3 	c #66BF62",
"4 	c #62BC5F",
"5 	c #5DBA5D",
"6 	c #58B85A",
"7 	c #54B557",
"8 	c #4FB254",
"9 	c #4AB052",
"0 	c #45AD4F",
"a 	c #40AB4C",
"b 	c #3CA849",
"c 	c #37A647",
"d 	c #32A344",
"e 	c #2DA041",
"f 	c #289D3D",
"g 	c #239A3B",
"h 	c #1E9838",
"i 	c #199535",
"j 	c #139232",
"k 	c #0F8F2F",
"l 	c #098B2B",
"m 	c #035018",
"n 	c #68AE5E",
"o 	c #76C96B",
"p 	c #70C568",
"q 	c #6CC365",
"r 	c #67C062",
"s 	c #62BD60",
"t 	c #5FBC5E",
"u 	c #5ABA5B",
"v 	c #55B859",
"w 	c #51B656",
"x 	c #4CB354",
"y 	c #47B051",
"z 	c #42AD4E",
"A 	c #3EAA4B",
"B 	c #38A647",
"C 	c #32A243",
"D 	c #2E9D40",
"E 	c #28993C",
"F 	c #239439",
"G 	c #1E9036",
"H 	c #188C32",
"I 	c #13882F",
"J 	c #0F842C",
"K 	c #0A7C27",
"L 	c #629F57",
"M 	c #7BCC6F",
"N 	c #76C86B",
"O 	c #71C569",
"P 	c #6DC366",
"Q 	c #69C163",
"R 	c #65C162",
"S 	c #57AC56",
"T 	c #3E803F",
"U 	c #377539",
"V 	c #316E34",
"W 	c #2C6830",
"X 	c #28602C",
"Y 	c #225928",
"Z 	c #1D5124",
"` 	c #1A4E22",
" .	c #184C20",
"..	c #81CF72",
"+.	c #7CCB6E",
"@.	c #77C86C",
"#.	c #72C76A",
"$.	c #6EC467",
"%.	c #69C164",
"&.	c #549F51",
"*.	c #71B062",
"=.	c #84D274",
"-.	c #7FCF71",
";.	c #7ACD6F",
">.	c #76CB6C",
",.	c #72C869",
"'.	c #6CC465",
").	c #1F391D",
"!.	c #558DC1",
"~.	c #568EC3",
"{.	c #568FC5",
"].	c #5790C7",
"^.	c #5892C8",
"/.	c #538ABE",
"(.	c #5B98D0",
"_.	c #5C99D2",
":.	c #5E9CD5",
"<.	c #609FDB",
"[.	c #61A1DC",
"}.	c #497440",
"|.	c #3F6638",
"1.	c #355930",
"2.	c #2C4A28",
"3.	c #213B1F",
"4.	c #609ED9",
"5.	c #63A4E2",
"6.	c #63A4E1",
"7.	c #5B96CE",
"8.	c #64A6E4",
"9.	c #4878A4",
"0.	c #426E96",
"a.	c #4F83B3",
"b.	c #4E82B2",
"c.	c #62A3DF",
"d.	c #64A6E3",
"e.	c #274159",
"f.	c #44729C",
"g.	c #5B97CF",
"h.	c #5B97D0",
"i.	c #5C98D0",
"j.	c #5C98D1",
"k.	c #5B97CE",
"l.	c #64A5E2",
"m.	c #36597B",
"n.	c #64A4E2",
"o.	c #5A95CD",
"p.	c #5993CB",
"q.	c #64A5E3",
"r.	c #45729C",
"s.	c #63A4E3",
"t.	c #62A2E1",
"u.	c #62A1E1",
"v.	c #61A1E1",
"w.	c #609FE0",
"x.	c #5993D4",
"y.	c #5D9BDF",
"z.	c #5D99DF",
"A.	c #5C99DF",
"B.	c #5B98DE",
"C.	c #4878B1",
"D.	c #63A3E5",
"E.	c #609EE0",
"F.	c #5F9DE0",
"G.	c #5F9DDF",
"H.	c #5E9BDF",
"I.	c #5C99DC",
"J.	c #2B4666",
"K.	c #4D7FBD",
"L.	c #5A96DF",
"M.	c #5A94DE",
"N.	c #5993DD",
"O.	c #5992DD",
"P.	c #5993E1",
"Q.	c #4069A0",
"R.	c #365A8E",
"S.	c #568EDF",
"T.	c #548ADB",
"U.	c #5489DB",
"V.	c #5389DB",
"W.	c #5287DA",
"X.	c #2E4D7C",
"Y.	c #4C7DC1",
"Z.	c #5891DE",
"`.	c #568FDC",
" +	c #568EDC",
".+	c #568DDC",
"++	c #558CDC",
"@+	c #4F82CD",
"#+	c #4D7ECD",
"$+	c #5185DA",
"%+	c #5085DA",
"&+	c #5084DA",
"*+	c #4F82D9",
"=+	c #5185DF",
"-+	c #121E31",
";+	c #4370C2",
">+	c #4C7CD9",
",+	c #4A7BD7",
"'+	c #4A7AD7",
")+	c #4978D7",
"!+	c #4877D6",
"~+	c #4E82D9",
"{+	c #4E81D9",
"]+	c #4E80D9",
"^+	c #4E7FD9",
"/+	c #4D7ED8",
"(+	c #4C7DDA",
"_+	c #395FA4",
":+	c #4775D2",
"<+	c #4876D6",
"[+	c #4775D6",
"}+	c #4773D6",
"|+	c #4674D7",
"1+	c #3B62B7",
"2+	c #436ED6",
"3+	c #416CD4",
"4+	c #416AD3",
"5+	c #4069D3",
"6+	c #406AD6",
"7+	c #304FA2",
"8+	c #375BA8",
"9+	c #4673D5",
"0+	c #4572D5",
"a+	c #4571D5",
"b+	c #4470D5",
"c+	c #436FD4",
"d+	c #4470D9",
"e+	c #14213E",
"f+	c #3150A3",
"g+	c #4069D4",
"h+	c #3E67D3",
"i+	c #3E66D2",
"j+	c #3D64D2",
"k+	c #3D64D3",
"l+	c #243C7F",
"m+	c #2F4DAC",
"n+	c #395ED1",
"o+	c #385CD0",
"p+	c #375AD0",
"q+	c #365ACF",
"r+	c #375AD5",
"s+	c #111C41",
"t+	c #3558B8",
"u+	c #3C63D2",
"v+	c #3C62D2",
"w+	c #3B61D1",
"x+	c #3A60D2",
"y+	c #3658C2",
"z+	c #3455C4",
"A+	c #3659CF",
"B+	c #3557CF",
"C+	c #3556CF",
"D+	c #3354CF",
"E+	c #3151C5",
"F+	c #101A3E",
"G+	c #2C49C0",
"H+	c #2F4DCC",
"I+	c #2E4CCC",
"J+	c #2D4ACB",
"K+	c #2D49CB",
"L+	c #2741B7",
"M+	c #3353C6",
"N+	c #3455CF",
"O+	c #3454CE",
"P+	c #3353CE",
"Q+	c #3252CD",
"R+	c #3151CE",
"S+	c #304FCC",
"T+	c #162467",
"U+	c #1F318C",
"V+	c #2E4BCF",
"W+	c #2C47CB",
"X+	c #2B47CA",
"Y+	c #2A45CA",
"Z+	c #2943C8",
"`+	c #2841C5",
" @	c #2942CB",
".@	c #2841CB",
"+@	c #273EC9",
"@@	c #263DC9",
"#@	c #253BC8",
"$@	c #243AC7",
"%@	c #2339C9",
"&@	c #172583",
"*@	c #1D2F86",
"=@	c #2D49CE",
"-@	c #2B46CB",
";@	c #2B46CA",
">@	c #2A44CA",
",@	c #2943CA",
"'@	c #2841C9",
")@	c #2740C9",
"!@	c #2840CC",
"~@	c #273FCA",
"{@	c #263DCA",
"]@	c #243AC8",
"^@	c #2339C7",
"/@	c #2338C7",
"(@	c #2237C7",
"_@	c #2135C6",
":@	c #2034C6",
"<@	c #2033C6",
"[@	c #1E31C5",
"}@	c #1E30C5",
"|@	c #1D2EC4",
"1@	c #1C2DC4",
"2@	c #1B2CC4",
"3@	c #1A2AC3",
"4@	c #1928C0",
"5@	c #0C1258",
"6@	c #1B2C97",
"7@	c #233AC9",
"8@	c #2238C7",
"9@	c #2136C7",
"0@	c #1F32C6",
"a@	c #1D2FC5",
"b@	c #1C2EC5",
"c@	c #1B2BC4",
"d@	c #1A2AC4",
"e@	c #1929C3",
"f@	c #1827C3",
"g@	c #1826C3",
"h@	c #1724C2",
"i@	c #1623C2",
"j@	c #1522C1",
"k@	c #1420C2",
"l@	c #141FC2",
"m@	c #121EC1",
"n@	c #111CC2",
"o@	c #111AC1",
"p@	c #0E17B2",
"q@	c #1A2AC1",
"r@	c #1929C4",
"s@	c #1927C4",
"t@	c #1724C3",
"u@	c #1623C3",
"v@	c #1522C4",
"w@	c #1520C3",
"x@	c #131FC3",
"y@	c #131DC3",
"z@	c #111CC0",
"A@	c #111ABB",
"B@	c #0F19B6",
"C@	c #0F17B1",
"D@	c #0D15AD",
"E@	c #0D14A9",
"F@	c #0C13A7",
"G@	c #0B11A4",
"H@	c #0A1099",
"I@	c #080D8B",
"J@	c #070B7A",
"K@	c #060968",
"L@	c #0F179E",
"M@	c #0E16AA",
"N@	c #0E15AF",
"O@	c #0C13A9",
"P@	c #0C129C",
"Q@	c #0A108F",
"R@	c #090E80",
"S@	c #080C72",
"T@	c #070B63",
"U@	c #060957",
"                                                                ",
"                                                                ",
"                                                                ",
"                                                                ",
"                                                                ",
"                                                    . + @ # $   ",
"                  % & * = - ; > , ' ) ! ~ { ] ^ / ( _ : < [ }   ",
"              | 1 2 3 4 5 6 7 8 9 0 a b c d e f g h i j k l m   ",
"            n o p q r s t u v w x y z A B C D E F G H I J K     ",
"          L M N O P Q R S T U V W X Y Z `  .                    ",
"          ..+.@.#.$.%.&.                                        ",
"        *.=.-.;.>.,.'.).      !.~.{.].^.      /.(._.:.<.[.      ",
"          }.|.1.2.3.        4.5.6.6.6.7.      [.6.6.6.8.9.      ",
"                          0.8.6.6.6.6.a.    b.c.6.6.6.d.e.      ",
"      f.g.h.i.j._.{.      k.l.6.6.6.l.m.    !.n.6.6.6.o.        ",
"      p.l.6.6.6.q.r.      s.t.t.u.v.w.      x.y.z.A.B.C.        ",
"      D.E.F.G.H.I.J.    K.L.M.N.O.P.Q.    R.S.T.U.V.W.X.        ",
"    Y.Z.`. +.+++@+      #+$+%+&+*+=+-+    ;+>+,+'+)+!+          ",
"    ~+{+]+^+/+(+_+      :+<+[+}+|+1+      2+3+4+5+6+7+          ",
"  8+9+0+a+b+c+d+e+    f+g+h+i+j+k+l+    m+n+o+p+q+r+s+          ",
"  t+j+u+v+w+x+y+      z+A+B+C+D+E+F+    G+H+I+J+K+L+            ",
"  M+N+O+P+Q+R+S+T+  U+V+K+W+X+Y+Z+`+ @.@+@@@#@$@%@&@            ",
"*@=@-@;@>@,@'@)@!@~@{@]@^@/@(@_@:@<@[@}@|@1@2@3@4@5@            ",
"6@7@8@9@_@:@0@[@a@b@1@c@d@e@f@g@h@i@j@k@l@m@n@o@p@              ",
"  q@r@s@g@t@u@v@w@x@y@z@A@B@C@D@E@F@G@H@I@J@K@                  ",
"    L@M@N@O@P@Q@R@S@T@U@                                        ",
"                                                                ",
"                                                                ",
"                                                                ",
"                                                                ",
"                                                                ",
"                                                                "};
