/* XPM */
static char *weechat[] = {
/* columns rows colors chars-per-pixel */
"32 32 257 2",
"   c #000000",
".  c #0A0904",
"X  c #080813",
"o  c #080716",
"O  c #110D08",
"+  c #150A15",
"@  c #1A0D1A",
"#  c #19150C",
"$  c #151517",
"%  c #1F1F32",
"&  c #13132C",
"*  c #260A26",
"=  c #351935",
"-  c #271927",
";  c #262608",
":  c #322C0C",
">  c #36380B",
",  c #353316",
"<  c #232516",
"1  c #242224",
"2  c #292935",
"3  c #2D302D",
"4  c #2D3330",
"5  c #3B333B",
"6  c #1D1C4A",
"7  c #110F7B",
"8  c #0E0D65",
"9  c #221F60",
"0  c #282948",
"q  c #292855",
"w  c #333447",
"e  c #383855",
"r  c #2A2978",
"t  c #302F70",
"y  c #353465",
"u  c #363574",
"i  c #2A286E",
"p  c #2E4110",
"a  c #39410C",
"s  c #3E4C11",
"d  c #3F5220",
"f  c #394041",
"g  c #3E4753",
"h  c #493F11",
"j  c #4F1050",
"k  c #4A0F4B",
"l  c #572657",
"z  c #4D374D",
"x  c #403F6F",
"c  c #640964",
"v  c #641E64",
"b  c #701770",
"n  c #790A79",
"m  c #683C68",
"M  c #623662",
"N  c #6B2B6B",
"B  c #454A08",
"V  c #484C15",
"C  c #554B16",
"Z  c #58560A",
"A  c #595B0B",
"S  c #545715",
"D  c #4C5712",
"F  c #4D5034",
"G  c #504F24",
"H  c #4E710E",
"J  c #4D7C1C",
"K  c #5B6713",
"L  c #506B11",
"P  c #546927",
"I  c #506D2E",
"U  c #665B14",
"Y  c #696C0C",
"T  c #68730D",
"R  c #6F7010",
"E  c #707128",
"W  c #4D504D",
"Q  c #46456A",
"!  c #4C4C7B",
"~  c #434577",
"^  c #554C69",
"/  c #5B5A7D",
"(  c #54547A",
")  c #535964",
"_  c #567745",
"`  c #4D6B57",
"'  c #5D6C78",
"]  c #587069",
"[  c #6A487C",
"{  c #6D576D",
"}  c #645475",
"|  c #76557A",
" . c #786678",
".. c #70707D",
"X. c #676768",
"o. c #3F3E82",
"O. c #2D2BAA",
"+. c #3D3BA4",
"@. c #3B39B9",
"#. c #484888",
"$. c #4A4C96",
"%. c #585885",
"&. c #595890",
"*. c #555494",
"=. c #4745A6",
"-. c #4947B5",
";. c #514FBB",
":. c #5A58BB",
">. c #5C5BAF",
",. c #755581",
"<. c #605FB6",
"1. c #6B6883",
"2. c #68679B",
"3. c #7A7497",
"4. c #76698F",
"5. c #6968A6",
"6. c #706FB5",
"7. c #7675BB",
"8. c #6E6DB6",
"9. c #4947C3",
"0. c #5351C2",
"q. c #5D5BC0",
"w. c #6B6ACC",
"e. c #6361C7",
"r. c #7170C6",
"t. c #7877D2",
"y. c #56840C",
"u. c #6A8814",
"i. c #63980B",
"p. c #748614",
"a. c #7F9C0D",
"s. c #749218",
"d. c #698F13",
"f. c #6C852A",
"g. c #798C35",
"h. c #76912B",
"j. c #76B505",
"k. c #70A50F",
"l. c #7EA525",
"z. c #678946",
"x. c #A57A5A",
"c. c #9A1E9A",
"v. c #861B86",
"b. c #912B92",
"n. c #8A298A",
"m. c #A030A0",
"M. c #864886",
"N. c #8F469E",
"B. c #975897",
"V. c #8A788A",
"C. c #936A93",
"Z. c #987599",
"A. c #866892",
"S. c #9470AB",
"D. c #A25FA2",
"F. c #B16FB1",
"G. c #B07FB1",
"H. c #B776B7",
"J. c #807FD0",
"K. c #A37AC2",
"L. c #87880B",
"P. c #888513",
"I. c #869A0A",
"U. c #8B9B14",
"Y. c #94970D",
"T. c #9B9C13",
"R. c #98961A",
"E. c #968D16",
"W. c #929D2F",
"Q. c #82A90B",
"!. c #8CAA06",
"~. c #82B30A",
"^. c #84B706",
"/. c #97A913",
"(. c #96B90A",
"). c #99B914",
"_. c #91AB10",
"`. c #A39A1C",
"'. c #A09A3D",
"]. c #A9AE05",
"[. c #A7AA16",
"{. c #A7B90B",
"}. c #ACB712",
"|. c #BDBA18",
" X c #B7B711",
".X c #B0B726",
"XX c #9A8B4B",
"oX c #9EC008",
"OX c #BCC40D",
"+X c #BCC90E",
"@X c #B1C707",
"#X c #AEC90C",
"$X c #C4AE2A",
"%X c #C4CB11",
"&X c #C8D809",
"*X c #CBD011",
"=X c #D1CF1A",
"-X c #D1D50E",
";X c #D7E803",
":X c #918197",
">X c #858494",
",X c #8987BA",
"<X c #928BBB",
"1X c #9B9BA8",
"2X c #9B98B8",
"3X c #8784A3",
"4X c #A787A8",
"5X c #AE9CAE",
"6X c #AC99B1",
"7X c #B988B9",
"8X c #BB92BC",
"9X c #B598B8",
"0X c #A0A0A7",
"qX c #A6A6B7",
"wX c #8382C6",
"eX c #8382D4",
"rX c #8D8CD4",
"tX c #9C8CC7",
"yX c #908FD9",
"uX c #9493C6",
"iX c #9A99DB",
"pX c #9493D3",
"aX c #A693C8",
"sX c #A09AD5",
"dX c #A8A5C9",
"fX c #A9A6D6",
"gX c #B7A8C7",
"hX c #B7B6DA",
"jX c #B5B1CE",
"kX c #B7B4E2",
"lX c #A9A8E2",
"zX c #C88EC8",
"xX c #C38BC3",
"cX c #C695C6",
"vX c #C2ADC2",
"bX c #C7A6C7",
"nX c #C4B5C4",
"mX c #C6B9D3",
"MX c #DDB9DD",
"NX c #D9B4D9",
"BX c #D3A4D4",
"VX c #C9C5CA",
"CX c #CAC9D7",
"ZX c #D4CBD4",
"AX c #D9C1D9",
"SX c #DACEDA",
"DX c #C4C3E4",
"FX c #CBC9E6",
"GX c #D8D7E6",
"HX c #E7CCE7",
"JX c #E9CFE9",
"KX c #EADBEA",
"LX c #E4DAE4",
"PX c #EDE2ED",
"IX c #EAEAF4",
"UX c #F0E1F0",
"YX c None",
/* pixels */
"YXYXYXYXYXYXYXYXYXSXLXIXUXCX    YXYXYXYXVXLXPXPXZX.   YXYXYXYXYX",
"YXYXYXYXYXYXYXnXKXUXUXKXJXSXnX    YXnXKXPXPXPXKXSXnX    YXYXYXYX",
"YXYXYXYXYXYX9XHXJXMX0XvX:X9XSX     .HXJXAX5XvX>XvXAX.   YXYXYXYX",
"YXYXYXYXYXYXMXMXkXx.. | 4XNXvX    NXMXMXV.  { 4XNXbX      YXYXYX",
"YXYXYXYXYXBXBX8XZ.    4X8X8XZ.  { BX8X4X    G.7XcXZ.      YXYXYX",
"YXYXYXYXLXcXcXC.z     zXxX7X) X.G.G.C.z     zXcX7X5 5 VX    YXYX",
"YXYX1XIXGXBXCXC.+   H.H.F.6XIXIX8X| B.-   F.H.8X5X0XCXCX      YX",
"YXYX3 GXmX8XmXZ.M M.D.m | VXCXGX4X| B.M.B.D.m gXqX1XCXW       YX",
"YXYX  CXgXS.jXA.= + =   2XFXqXFXZ.| n.l @ =   jX>X..GX$       YX",
"YXYX  hXaXA.jX,.= +     kXFXDXFX3.{ m l *   w hXV.2XdX        YX",
"YXYX  hXdX,.fX[ v n.j b.kX2XDXhX1.4.v b.m.j S.tX3XkX1.        YX",
"YXYX  fXdX4.aX^ j v.c.N.fX) kXuX} <X= b c.c.G.tX1.kX%       YXYX",
"YXYX  <XfXuX<X[ k c c S.uX( fX,X' iXk c n b tX/ 3.uX        YXYX",
"YXYX  2.iXrX2./ $     pX2.6.rX,XQ iX2     2 iXQ pX/         YXYX",
"YXYX  e rXrX( %.e   ( rX( 5.7.wXQ J.y     5.yX( yX&       YXYXYX",
"YXYXYX  t.eXQ 5.~   7.7.2.% 2.eX&.2.&.    J.6.8.5.        YXYXYX",
"YXYXYX  r.t.y 8.#.o 8.~ *.  x t.r.~ 8.  0 t.! r.0   o $ F YXYXYX",
"YXYXYX  <.w.~ >.#.d ] #.0   q w.w.y w.o #.e.$.<..   d I I     YX",
"YXYXYX  =.e.=.#.g z.I t X   q ;.e.u :.y :.o.q.u   < J y.d     YX",
"YXYXYX  y 0.0.r ] _ I 6     o -.0.-.=.0.;.t 0.o   , I y.p     YX",
"YXYXYXYX  9.9.i ' _ g X     + +.9.9.@.;.i +.r     y.k.i.y.H     ",
"YXYXXXW.Q.] =.@.z.J 4 . V s.E o.@.@.-.' d.z.L ; s j.j.j.i.D     ",
"YXXXW.Q.Q.f.) O.l.f.# D Q.u.u.o O.$.g.g.h.^.^.> s.oX~.~.u.s     ",
"YX}.oXD a P w 9 ~.f.S T p.p.K   ~ ).g q g j.(.. # k.a.K         ",
".X#X{.  . ; 7 0 _.!.V O I.U.C . oXg.6 8 4 Y.(.  a /.).T         ",
"+X#X(.      1 # T.{.,   #X{.C B +XI.    I./.{.  T #XoXA       YX",
"&X+X}.Y P.%X[.P.+X@X.   &X@XY Z ;X/.A T.OX}.+X; Y.}.[.B     YXYX",
".X*XOX;X;X XZ T.*XL.    =X%XP.; ;X%X*XT.> `.|., ].`. X:     YXYX",
". Y.].T.A .   C C ;     $X-Xh   P.].R O   R :    XE.P.O     YXYX",
"                        E U                     C .         YXYX",
"YX                    YX. #                               YXYXYX",
"YXYXYXYXYXYXYXYXYXYXYXYXYX      YXYXYXYXYXYXYXYXYX    YXYXYXYXYX"
};
